<mxfile host="Electron" agent="Mozilla/5.0 (X11; Linux x86_64) AppleWebKit/537.36 (KHTML, like Gecko) draw.io/24.7.17 Chrome/128.0.6613.36 Electron/32.0.1 Safari/537.36" version="24.7.17">
  <diagram name="Page-1" id="yOdfGqHVN3B_BinNxA5Z">
    <mxGraphModel dx="1834" dy="1241" grid="0" gridSize="10" guides="1" tooltips="1" connect="1" arrows="1" fold="1" page="0" pageScale="1" pageWidth="850" pageHeight="1100" math="0" shadow="0">
      <root>
        <mxCell id="0" />
        <mxCell id="1" parent="0" />
        <mxCell id="28TmXDf5r4aAqDVnzsn--3" value=":Interface" style="shape=umlLifeline;perimeter=lifelinePerimeter;whiteSpace=wrap;html=1;container=0;dropTarget=0;collapsible=0;recursiveResize=0;outlineConnect=0;portConstraint=eastwest;newEdgeStyle={&quot;edgeStyle&quot;:&quot;elbowEdgeStyle&quot;,&quot;elbow&quot;:&quot;vertical&quot;,&quot;curved&quot;:0,&quot;rounded&quot;:0};" vertex="1" parent="1">
          <mxGeometry x="-104" y="9" width="100" height="482" as="geometry" />
        </mxCell>
        <mxCell id="28TmXDf5r4aAqDVnzsn--4" value="" style="html=1;points=[];perimeter=orthogonalPerimeter;outlineConnect=0;targetShapes=umlLifeline;portConstraint=eastwest;newEdgeStyle={&quot;edgeStyle&quot;:&quot;elbowEdgeStyle&quot;,&quot;elbow&quot;:&quot;vertical&quot;,&quot;curved&quot;:0,&quot;rounded&quot;:0};" vertex="1" parent="28TmXDf5r4aAqDVnzsn--3">
          <mxGeometry x="45" y="93" width="10" height="355" as="geometry" />
        </mxCell>
        <mxCell id="28TmXDf5r4aAqDVnzsn--61" value="" style="endArrow=classic;html=1;rounded=0;fontSize=12;startSize=8;endSize=8;curved=1;" edge="1" parent="28TmXDf5r4aAqDVnzsn--3">
          <mxGeometry width="50" height="50" relative="1" as="geometry">
            <mxPoint x="55" y="209" as="sourcePoint" />
            <mxPoint x="61" y="231" as="targetPoint" />
            <Array as="points">
              <mxPoint x="97" y="214" />
            </Array>
          </mxGeometry>
        </mxCell>
        <mxCell id="28TmXDf5r4aAqDVnzsn--62" value="filtrarPorGrupo(critério)" style="edgeLabel;html=1;align=center;verticalAlign=middle;resizable=0;points=[];fontSize=8;" vertex="1" connectable="0" parent="28TmXDf5r4aAqDVnzsn--61">
          <mxGeometry x="0.4751" y="-4" relative="1" as="geometry">
            <mxPoint x="46" as="offset" />
          </mxGeometry>
        </mxCell>
        <mxCell id="28TmXDf5r4aAqDVnzsn--63" value="&lt;span style=&quot;color: rgba(0, 0, 0, 0); font-family: monospace; font-size: 0px; text-align: start;&quot;&gt;%3CmxGraphModel%3E%3Croot%3E%3CmxCell%20id%3D%220%22%2F%3E%3CmxCell%20id%3D%221%22%20parent%3D%220%22%2F%3E%3CmxCell%20id%3D%222%22%20value%3D%22%26lt%3Bfont%20style%3D%26quot%3Bfont-size%3A%209px%3B%26quot%3B%26gt%3B%5Bse%20n%C3%A3o%20houve%26lt%3B%2Ffont%26gt%3B%26lt%3Bdiv%20style%3D%26quot%3Bfont-size%3A%209px%3B%26quot%3B%26gt%3B%26lt%3Bfont%20style%3D%26quot%3Bfont-size%3A%209px%3B%26quot%3B%26gt%3Berro%5D%26lt%3B%2Ffont%26gt%3B%26lt%3B%2Fdiv%26gt%3B%22%20style%3D%22text%3Bhtml%3D1%3Balign%3Dcenter%3BverticalAlign%3Dmiddle%3Bresizable%3D0%3Bpoints%3D%5B%5D%3Bautosize%3D1%3BstrokeColor%3Dnone%3BfillColor%3Dnone%3BfontSize%3D9%3B%22%20vertex%3D%221%22%20parent%3D%221%22%3E%3CmxGeometry%20x%3D%22438%22%20y%3D%22306%22%20width%3D%2275%22%20height%3D%2234%22%20as%3D%22geometry%22%2F%3E%3C%2FmxCell%3E%3C%2Froot%3E%3C%2FmxGraphModel%3E&lt;/span&gt;" style="html=1;points=[];perimeter=orthogonalPerimeter;outlineConnect=0;targetShapes=umlLifeline;portConstraint=eastwest;newEdgeStyle={&quot;edgeStyle&quot;:&quot;elbowEdgeStyle&quot;,&quot;elbow&quot;:&quot;vertical&quot;,&quot;curved&quot;:0,&quot;rounded&quot;:0};" vertex="1" parent="28TmXDf5r4aAqDVnzsn--3">
          <mxGeometry x="50" y="221" width="10" height="18" as="geometry" />
        </mxCell>
        <mxCell id="28TmXDf5r4aAqDVnzsn--5" value=":Carteira" style="shape=umlLifeline;perimeter=lifelinePerimeter;whiteSpace=wrap;html=1;container=0;dropTarget=0;collapsible=0;recursiveResize=0;outlineConnect=0;portConstraint=eastwest;newEdgeStyle={&quot;edgeStyle&quot;:&quot;elbowEdgeStyle&quot;,&quot;elbow&quot;:&quot;vertical&quot;,&quot;curved&quot;:0,&quot;rounded&quot;:0};" vertex="1" parent="1">
          <mxGeometry x="218" y="8" width="100" height="487" as="geometry" />
        </mxCell>
        <mxCell id="28TmXDf5r4aAqDVnzsn--6" value="&lt;span style=&quot;color: rgba(0, 0, 0, 0); font-family: monospace; font-size: 0px; text-align: start;&quot;&gt;%3CmxGraphModel%3E%3Croot%3E%3CmxCell%20id%3D%220%22%2F%3E%3CmxCell%20id%3D%221%22%20parent%3D%220%22%2F%3E%3CmxCell%20id%3D%222%22%20value%3D%22%26lt%3Bfont%20style%3D%26quot%3Bfont-size%3A%209px%3B%26quot%3B%26gt%3B%5Bse%20n%C3%A3o%20houve%26lt%3B%2Ffont%26gt%3B%26lt%3Bdiv%20style%3D%26quot%3Bfont-size%3A%209px%3B%26quot%3B%26gt%3B%26lt%3Bfont%20style%3D%26quot%3Bfont-size%3A%209px%3B%26quot%3B%26gt%3Berro%5D%26lt%3B%2Ffont%26gt%3B%26lt%3B%2Fdiv%26gt%3B%22%20style%3D%22text%3Bhtml%3D1%3Balign%3Dcenter%3BverticalAlign%3Dmiddle%3Bresizable%3D0%3Bpoints%3D%5B%5D%3Bautosize%3D1%3BstrokeColor%3Dnone%3BfillColor%3Dnone%3BfontSize%3D9%3B%22%20vertex%3D%221%22%20parent%3D%221%22%3E%3CmxGeometry%20x%3D%22438%22%20y%3D%22306%22%20width%3D%2275%22%20height%3D%2234%22%20as%3D%22geometry%22%2F%3E%3C%2FmxCell%3E%3C%2Froot%3E%3C%2FmxGraphModel%3E&lt;/span&gt;" style="html=1;points=[];perimeter=orthogonalPerimeter;outlineConnect=0;targetShapes=umlLifeline;portConstraint=eastwest;newEdgeStyle={&quot;edgeStyle&quot;:&quot;elbowEdgeStyle&quot;,&quot;elbow&quot;:&quot;vertical&quot;,&quot;curved&quot;:0,&quot;rounded&quot;:0};" vertex="1" parent="28TmXDf5r4aAqDVnzsn--5">
          <mxGeometry x="45" y="319" width="10" height="21" as="geometry" />
        </mxCell>
        <mxCell id="28TmXDf5r4aAqDVnzsn--80" value="&lt;span style=&quot;color: rgba(0, 0, 0, 0); font-family: monospace; font-size: 0px; text-align: start;&quot;&gt;%3CmxGraphModel%3E%3Croot%3E%3CmxCell%20id%3D%220%22%2F%3E%3CmxCell%20id%3D%221%22%20parent%3D%220%22%2F%3E%3CmxCell%20id%3D%222%22%20value%3D%22%26lt%3Bfont%20style%3D%26quot%3Bfont-size%3A%209px%3B%26quot%3B%26gt%3B%5Bse%20n%C3%A3o%20houve%26lt%3B%2Ffont%26gt%3B%26lt%3Bdiv%20style%3D%26quot%3Bfont-size%3A%209px%3B%26quot%3B%26gt%3B%26lt%3Bfont%20style%3D%26quot%3Bfont-size%3A%209px%3B%26quot%3B%26gt%3Berro%5D%26lt%3B%2Ffont%26gt%3B%26lt%3B%2Fdiv%26gt%3B%22%20style%3D%22text%3Bhtml%3D1%3Balign%3Dcenter%3BverticalAlign%3Dmiddle%3Bresizable%3D0%3Bpoints%3D%5B%5D%3Bautosize%3D1%3BstrokeColor%3Dnone%3BfillColor%3Dnone%3BfontSize%3D9%3B%22%20vertex%3D%221%22%20parent%3D%221%22%3E%3CmxGeometry%20x%3D%22438%22%20y%3D%22306%22%20width%3D%2275%22%20height%3D%2234%22%20as%3D%22geometry%22%2F%3E%3C%2FmxCell%3E%3C%2Froot%3E%3C%2FmxGraphModel%3E&lt;/span&gt;" style="html=1;points=[];perimeter=orthogonalPerimeter;outlineConnect=0;targetShapes=umlLifeline;portConstraint=eastwest;newEdgeStyle={&quot;edgeStyle&quot;:&quot;elbowEdgeStyle&quot;,&quot;elbow&quot;:&quot;vertical&quot;,&quot;curved&quot;:0,&quot;rounded&quot;:0};" vertex="1" parent="28TmXDf5r4aAqDVnzsn--5">
          <mxGeometry x="45" y="370" width="10" height="21" as="geometry" />
        </mxCell>
        <mxCell id="28TmXDf5r4aAqDVnzsn--14" value="" style="endArrow=none;dashed=1;html=1;rounded=0;" edge="1" parent="1">
          <mxGeometry width="50" height="50" relative="1" as="geometry">
            <mxPoint x="-210" y="489" as="sourcePoint" />
            <mxPoint x="-210" y="71" as="targetPoint" />
          </mxGeometry>
        </mxCell>
        <mxCell id="28TmXDf5r4aAqDVnzsn--15" value="Usuário" style="shape=umlActor;verticalLabelPosition=bottom;verticalAlign=top;html=1;outlineConnect=0;" vertex="1" parent="1">
          <mxGeometry x="-225" y="-8" width="30" height="60" as="geometry" />
        </mxCell>
        <mxCell id="28TmXDf5r4aAqDVnzsn--16" value="" style="rounded=0;whiteSpace=wrap;html=1;" vertex="1" parent="1">
          <mxGeometry x="-215" y="97" width="10" height="372" as="geometry" />
        </mxCell>
        <mxCell id="28TmXDf5r4aAqDVnzsn--17" value="" style="endArrow=classic;html=1;rounded=0;fontSize=12;startSize=8;endSize=8;curved=1;" edge="1" parent="1" target="28TmXDf5r4aAqDVnzsn--4">
          <mxGeometry width="50" height="50" relative="1" as="geometry">
            <mxPoint x="-205" y="115" as="sourcePoint" />
            <mxPoint x="-155" y="65" as="targetPoint" />
          </mxGeometry>
        </mxCell>
        <mxCell id="28TmXDf5r4aAqDVnzsn--18" value="seleciona opção &quot;visualizar&lt;div&gt;por grupos&quot;&lt;/div&gt;" style="edgeLabel;html=1;align=center;verticalAlign=middle;resizable=0;points=[];fontSize=10;" vertex="1" connectable="0" parent="28TmXDf5r4aAqDVnzsn--17">
          <mxGeometry x="0.5382" y="2" relative="1" as="geometry">
            <mxPoint x="-42" y="19" as="offset" />
          </mxGeometry>
        </mxCell>
        <mxCell id="28TmXDf5r4aAqDVnzsn--19" value="[se logado e na tela de carteira]" style="text;html=1;align=center;verticalAlign=middle;whiteSpace=wrap;rounded=0;fontSize=10;" vertex="1" parent="1">
          <mxGeometry x="-179" y="84" width="87" height="30" as="geometry" />
        </mxCell>
        <mxCell id="28TmXDf5r4aAqDVnzsn--20" value=":Usuario" style="shape=umlLifeline;perimeter=lifelinePerimeter;whiteSpace=wrap;html=1;container=0;dropTarget=0;collapsible=0;recursiveResize=0;outlineConnect=0;portConstraint=eastwest;newEdgeStyle={&quot;edgeStyle&quot;:&quot;elbowEdgeStyle&quot;,&quot;elbow&quot;:&quot;vertical&quot;,&quot;curved&quot;:0,&quot;rounded&quot;:0};" vertex="1" parent="1">
          <mxGeometry x="47" y="8" width="100" height="484" as="geometry" />
        </mxCell>
        <mxCell id="28TmXDf5r4aAqDVnzsn--21" value="" style="html=1;points=[];perimeter=orthogonalPerimeter;outlineConnect=0;targetShapes=umlLifeline;portConstraint=eastwest;newEdgeStyle={&quot;edgeStyle&quot;:&quot;elbowEdgeStyle&quot;,&quot;elbow&quot;:&quot;vertical&quot;,&quot;curved&quot;:0,&quot;rounded&quot;:0};" vertex="1" parent="28TmXDf5r4aAqDVnzsn--20">
          <mxGeometry x="45" y="278" width="10" height="14" as="geometry" />
        </mxCell>
        <mxCell id="28TmXDf5r4aAqDVnzsn--52" value="UC-20&lt;div&gt;Agrupar ações na&lt;/div&gt;&lt;div&gt;carteira&lt;/div&gt;" style="strokeWidth=2;html=1;shape=mxgraph.flowchart.start_1;whiteSpace=wrap;" vertex="1" parent="1">
          <mxGeometry x="1" y="-108" width="134" height="83" as="geometry" />
        </mxCell>
        <mxCell id="28TmXDf5r4aAqDVnzsn--55" value="" style="endArrow=open;html=1;rounded=0;fontSize=12;startSize=8;endSize=8;curved=1;entryX=0.943;entryY=0.167;entryDx=0;entryDy=0;entryPerimeter=0;endFill=0;dashed=1;" edge="1" parent="1">
          <mxGeometry width="50" height="50" relative="1" as="geometry">
            <mxPoint x="-58.43000000000001" y="450" as="sourcePoint" />
            <mxPoint x="-204.99999999999994" y="450.124" as="targetPoint" />
          </mxGeometry>
        </mxCell>
        <mxCell id="28TmXDf5r4aAqDVnzsn--56" value="exibe carteira com&lt;div style=&quot;font-size: 9px;&quot;&gt;grupos de ações&lt;/div&gt;" style="edgeLabel;html=1;align=center;verticalAlign=middle;resizable=0;points=[];fontSize=9;" vertex="1" connectable="0" parent="28TmXDf5r4aAqDVnzsn--55">
          <mxGeometry x="0.1332" y="1" relative="1" as="geometry">
            <mxPoint x="4" y="12" as="offset" />
          </mxGeometry>
        </mxCell>
        <mxCell id="28TmXDf5r4aAqDVnzsn--57" value="" style="endArrow=classic;html=1;rounded=0;fontSize=12;startSize=8;endSize=8;curved=1;" edge="1" parent="1">
          <mxGeometry width="50" height="50" relative="1" as="geometry">
            <mxPoint x="-205" y="203" as="sourcePoint" />
            <mxPoint x="-59" y="203" as="targetPoint" />
          </mxGeometry>
        </mxCell>
        <mxCell id="28TmXDf5r4aAqDVnzsn--58" value="seleciona opção &quot;critério de&lt;div style=&quot;font-size: 9px;&quot;&gt;agrupamento&quot; e escolhe&lt;/div&gt;&lt;div style=&quot;font-size: 9px;&quot;&gt;o critério (setor, tipo,&lt;/div&gt;&lt;div style=&quot;font-size: 9px;&quot;&gt;personalizado, etc)&lt;/div&gt;" style="edgeLabel;html=1;align=center;verticalAlign=middle;resizable=0;points=[];fontSize=9;" vertex="1" connectable="0" parent="28TmXDf5r4aAqDVnzsn--57">
          <mxGeometry x="0.5382" y="2" relative="1" as="geometry">
            <mxPoint x="-43" y="29" as="offset" />
          </mxGeometry>
        </mxCell>
        <mxCell id="28TmXDf5r4aAqDVnzsn--64" value="" style="endArrow=classic;html=1;rounded=0;fontSize=12;startSize=8;endSize=8;curved=1;" edge="1" parent="1">
          <mxGeometry width="50" height="50" relative="1" as="geometry">
            <mxPoint x="-205" y="270" as="sourcePoint" />
            <mxPoint x="-59" y="270" as="targetPoint" />
          </mxGeometry>
        </mxCell>
        <mxCell id="28TmXDf5r4aAqDVnzsn--65" value="seleciona opção &quot;criar novo&lt;div&gt;grupo&quot;, seleciona as ações&lt;/div&gt;&lt;div&gt;e insere nome do grupo&lt;/div&gt;" style="edgeLabel;html=1;align=center;verticalAlign=middle;resizable=0;points=[];fontSize=9;" vertex="1" connectable="0" parent="28TmXDf5r4aAqDVnzsn--64">
          <mxGeometry x="0.5382" y="2" relative="1" as="geometry">
            <mxPoint x="-43" y="22" as="offset" />
          </mxGeometry>
        </mxCell>
        <mxCell id="28TmXDf5r4aAqDVnzsn--66" value="" style="endArrow=classic;html=1;rounded=0;fontSize=12;startSize=8;endSize=8;curved=1;" edge="1" parent="1" target="28TmXDf5r4aAqDVnzsn--6">
          <mxGeometry width="50" height="50" relative="1" as="geometry">
            <mxPoint x="-49" y="338" as="sourcePoint" />
            <mxPoint x="91" y="338" as="targetPoint" />
          </mxGeometry>
        </mxCell>
        <mxCell id="28TmXDf5r4aAqDVnzsn--67" value="novoGrupo(acoes, nome)" style="edgeLabel;html=1;align=center;verticalAlign=middle;resizable=0;points=[];fontSize=9;" vertex="1" connectable="0" parent="28TmXDf5r4aAqDVnzsn--66">
          <mxGeometry x="0.5382" y="2" relative="1" as="geometry">
            <mxPoint x="-180" y="10" as="offset" />
          </mxGeometry>
        </mxCell>
        <mxCell id="28TmXDf5r4aAqDVnzsn--68" value="" style="endArrow=classic;html=1;rounded=0;fontSize=12;startSize=8;endSize=8;curved=1;" edge="1" parent="1">
          <mxGeometry width="50" height="50" relative="1" as="geometry">
            <mxPoint x="-49" y="286" as="sourcePoint" />
            <mxPoint x="91" y="286" as="targetPoint" />
          </mxGeometry>
        </mxCell>
        <mxCell id="28TmXDf5r4aAqDVnzsn--69" value="getCarteira()" style="edgeLabel;html=1;align=center;verticalAlign=middle;resizable=0;points=[];fontSize=9;" vertex="1" connectable="0" parent="28TmXDf5r4aAqDVnzsn--68">
          <mxGeometry x="0.5382" y="2" relative="1" as="geometry">
            <mxPoint x="-41" y="-5" as="offset" />
          </mxGeometry>
        </mxCell>
        <mxCell id="28TmXDf5r4aAqDVnzsn--70" value="" style="endArrow=open;html=1;rounded=0;fontSize=12;startSize=8;endSize=8;curved=1;dashed=1;endFill=0;" edge="1" parent="1" target="28TmXDf5r4aAqDVnzsn--4">
          <mxGeometry width="50" height="50" relative="1" as="geometry">
            <mxPoint x="92" y="300" as="sourcePoint" />
            <mxPoint x="142" y="250" as="targetPoint" />
          </mxGeometry>
        </mxCell>
        <mxCell id="28TmXDf5r4aAqDVnzsn--71" value="carteira" style="edgeLabel;html=1;align=center;verticalAlign=middle;resizable=0;points=[];fontSize=9;" vertex="1" connectable="0" parent="28TmXDf5r4aAqDVnzsn--70">
          <mxGeometry x="0.1177" y="1" relative="1" as="geometry">
            <mxPoint x="6" y="6" as="offset" />
          </mxGeometry>
        </mxCell>
        <mxCell id="28TmXDf5r4aAqDVnzsn--72" value=":Grupo" style="shape=umlLifeline;perimeter=lifelinePerimeter;whiteSpace=wrap;html=1;container=0;dropTarget=0;collapsible=0;recursiveResize=0;outlineConnect=0;portConstraint=eastwest;newEdgeStyle={&quot;edgeStyle&quot;:&quot;elbowEdgeStyle&quot;,&quot;elbow&quot;:&quot;vertical&quot;,&quot;curved&quot;:0,&quot;rounded&quot;:0};" vertex="1" parent="1">
          <mxGeometry x="348" y="9" width="100" height="411" as="geometry" />
        </mxCell>
        <mxCell id="28TmXDf5r4aAqDVnzsn--73" value="&lt;span style=&quot;color: rgba(0, 0, 0, 0); font-family: monospace; font-size: 0px; text-align: start;&quot;&gt;%3CmxGraphModel%3E%3Croot%3E%3CmxCell%20id%3D%220%22%2F%3E%3CmxCell%20id%3D%221%22%20parent%3D%220%22%2F%3E%3CmxCell%20id%3D%222%22%20value%3D%22%26lt%3Bfont%20style%3D%26quot%3Bfont-size%3A%209px%3B%26quot%3B%26gt%3B%5Bse%20n%C3%A3o%20houve%26lt%3B%2Ffont%26gt%3B%26lt%3Bdiv%20style%3D%26quot%3Bfont-size%3A%209px%3B%26quot%3B%26gt%3B%26lt%3Bfont%20style%3D%26quot%3Bfont-size%3A%209px%3B%26quot%3B%26gt%3Berro%5D%26lt%3B%2Ffont%26gt%3B%26lt%3B%2Fdiv%26gt%3B%22%20style%3D%22text%3Bhtml%3D1%3Balign%3Dcenter%3BverticalAlign%3Dmiddle%3Bresizable%3D0%3Bpoints%3D%5B%5D%3Bautosize%3D1%3BstrokeColor%3Dnone%3BfillColor%3Dnone%3BfontSize%3D9%3B%22%20vertex%3D%221%22%20parent%3D%221%22%3E%3CmxGeometry%20x%3D%22438%22%20y%3D%22306%22%20width%3D%2275%22%20height%3D%2234%22%20as%3D%22geometry%22%2F%3E%3C%2FmxCell%3E%3C%2Froot%3E%3C%2FmxGraphModel%3E&lt;/span&gt;" style="html=1;points=[];perimeter=orthogonalPerimeter;outlineConnect=0;targetShapes=umlLifeline;portConstraint=eastwest;newEdgeStyle={&quot;edgeStyle&quot;:&quot;elbowEdgeStyle&quot;,&quot;elbow&quot;:&quot;vertical&quot;,&quot;curved&quot;:0,&quot;rounded&quot;:0};" vertex="1" parent="28TmXDf5r4aAqDVnzsn--72">
          <mxGeometry x="45" y="328" width="10" height="21" as="geometry" />
        </mxCell>
        <mxCell id="28TmXDf5r4aAqDVnzsn--81" value="&lt;span style=&quot;color: rgba(0, 0, 0, 0); font-family: monospace; font-size: 0px; text-align: start;&quot;&gt;%3CmxGraphModel%3E%3Croot%3E%3CmxCell%20id%3D%220%22%2F%3E%3CmxCell%20id%3D%221%22%20parent%3D%220%22%2F%3E%3CmxCell%20id%3D%222%22%20value%3D%22%26lt%3Bfont%20style%3D%26quot%3Bfont-size%3A%209px%3B%26quot%3B%26gt%3B%5Bse%20n%C3%A3o%20houve%26lt%3B%2Ffont%26gt%3B%26lt%3Bdiv%20style%3D%26quot%3Bfont-size%3A%209px%3B%26quot%3B%26gt%3B%26lt%3Bfont%20style%3D%26quot%3Bfont-size%3A%209px%3B%26quot%3B%26gt%3Berro%5D%26lt%3B%2Ffont%26gt%3B%26lt%3B%2Fdiv%26gt%3B%22%20style%3D%22text%3Bhtml%3D1%3Balign%3Dcenter%3BverticalAlign%3Dmiddle%3Bresizable%3D0%3Bpoints%3D%5B%5D%3Bautosize%3D1%3BstrokeColor%3Dnone%3BfillColor%3Dnone%3BfontSize%3D9%3B%22%20vertex%3D%221%22%20parent%3D%221%22%3E%3CmxGeometry%20x%3D%22438%22%20y%3D%22306%22%20width%3D%2275%22%20height%3D%2234%22%20as%3D%22geometry%22%2F%3E%3C%2FmxCell%3E%3C%2Froot%3E%3C%2FmxGraphModel%3E&lt;/span&gt;" style="html=1;points=[];perimeter=orthogonalPerimeter;outlineConnect=0;targetShapes=umlLifeline;portConstraint=eastwest;newEdgeStyle={&quot;edgeStyle&quot;:&quot;elbowEdgeStyle&quot;,&quot;elbow&quot;:&quot;vertical&quot;,&quot;curved&quot;:0,&quot;rounded&quot;:0};" vertex="1" parent="28TmXDf5r4aAqDVnzsn--72">
          <mxGeometry x="45" y="376" width="10" height="21" as="geometry" />
        </mxCell>
        <mxCell id="28TmXDf5r4aAqDVnzsn--84" value="" style="shape=umlDestroy;whiteSpace=wrap;html=1;strokeWidth=3;targetShapes=umlLifeline;" vertex="1" parent="28TmXDf5r4aAqDVnzsn--72">
          <mxGeometry x="39.75" y="400" width="20.5" height="20" as="geometry" />
        </mxCell>
        <mxCell id="28TmXDf5r4aAqDVnzsn--74" value="" style="endArrow=classic;html=1;rounded=0;fontSize=12;startSize=8;endSize=8;curved=1;" edge="1" parent="1" target="28TmXDf5r4aAqDVnzsn--73">
          <mxGeometry width="50" height="50" relative="1" as="geometry">
            <mxPoint x="273" y="348" as="sourcePoint" />
            <mxPoint x="323" y="298" as="targetPoint" />
          </mxGeometry>
        </mxCell>
        <mxCell id="28TmXDf5r4aAqDVnzsn--75" value="&amp;lt;&amp;lt;create&amp;gt;&amp;gt;" style="edgeLabel;html=1;align=center;verticalAlign=middle;resizable=0;points=[];fontSize=11;" vertex="1" connectable="0" parent="28TmXDf5r4aAqDVnzsn--74">
          <mxGeometry x="-0.1167" relative="1" as="geometry">
            <mxPoint x="3" y="-8" as="offset" />
          </mxGeometry>
        </mxCell>
        <mxCell id="28TmXDf5r4aAqDVnzsn--76" value="" style="endArrow=classic;html=1;rounded=0;fontSize=12;startSize=8;endSize=8;curved=1;" edge="1" parent="1">
          <mxGeometry width="50" height="50" relative="1" as="geometry">
            <mxPoint x="-205" y="371" as="sourcePoint" />
            <mxPoint x="-59" y="371" as="targetPoint" />
          </mxGeometry>
        </mxCell>
        <mxCell id="28TmXDf5r4aAqDVnzsn--77" value="seleciona opção &quot;apagar&lt;div&gt;grupo&quot; e seleciona o grupo&lt;/div&gt;" style="edgeLabel;html=1;align=center;verticalAlign=middle;resizable=0;points=[];fontSize=9;" vertex="1" connectable="0" parent="28TmXDf5r4aAqDVnzsn--76">
          <mxGeometry x="0.5382" y="2" relative="1" as="geometry">
            <mxPoint x="-45" y="18" as="offset" />
          </mxGeometry>
        </mxCell>
        <mxCell id="28TmXDf5r4aAqDVnzsn--78" value="" style="endArrow=classic;html=1;rounded=0;fontSize=12;startSize=8;endSize=8;curved=1;" edge="1" parent="1">
          <mxGeometry width="50" height="50" relative="1" as="geometry">
            <mxPoint x="-49" y="388" as="sourcePoint" />
            <mxPoint x="263" y="388" as="targetPoint" />
          </mxGeometry>
        </mxCell>
        <mxCell id="28TmXDf5r4aAqDVnzsn--79" value="apagarGrupo(nome)" style="edgeLabel;html=1;align=center;verticalAlign=middle;resizable=0;points=[];fontSize=9;" vertex="1" connectable="0" parent="28TmXDf5r4aAqDVnzsn--78">
          <mxGeometry x="0.5382" y="2" relative="1" as="geometry">
            <mxPoint x="-176" y="10" as="offset" />
          </mxGeometry>
        </mxCell>
        <mxCell id="28TmXDf5r4aAqDVnzsn--82" value="" style="endArrow=classic;html=1;rounded=0;fontSize=12;startSize=8;endSize=8;curved=1;" edge="1" parent="1">
          <mxGeometry width="50" height="50" relative="1" as="geometry">
            <mxPoint x="273" y="398" as="sourcePoint" />
            <mxPoint x="393" y="398" as="targetPoint" />
          </mxGeometry>
        </mxCell>
        <mxCell id="28TmXDf5r4aAqDVnzsn--83" value="&amp;lt;&amp;lt;destroy&amp;gt;&amp;gt;" style="edgeLabel;html=1;align=center;verticalAlign=middle;resizable=0;points=[];fontSize=11;" vertex="1" connectable="0" parent="28TmXDf5r4aAqDVnzsn--82">
          <mxGeometry x="-0.1167" relative="1" as="geometry">
            <mxPoint x="3" y="-8" as="offset" />
          </mxGeometry>
        </mxCell>
        <mxCell id="28TmXDf5r4aAqDVnzsn--85" value="" style="rounded=0;whiteSpace=wrap;html=1;fillColor=none;" vertex="1" parent="1">
          <mxGeometry x="-340" y="172" width="826" height="267" as="geometry" />
        </mxCell>
        <mxCell id="28TmXDf5r4aAqDVnzsn--86" value="&lt;font style=&quot;font-size: 10px;&quot;&gt;ações de&lt;/font&gt;&lt;div style=&quot;font-size: 10px;&quot;&gt;&lt;font style=&quot;font-size: 10px;&quot;&gt;agrupamento&lt;/font&gt;&lt;/div&gt;" style="verticalLabelPosition=middle;verticalAlign=middle;html=1;shape=card;whiteSpace=wrap;size=10;arcSize=12;flipH=1;flipV=1;fontSize=10;labelPosition=center;align=center;" vertex="1" parent="1">
          <mxGeometry x="-340" y="172" width="72" height="26" as="geometry" />
        </mxCell>
        <mxCell id="28TmXDf5r4aAqDVnzsn--87" value="" style="endArrow=none;dashed=1;html=1;strokeWidth=1;rounded=0;fontSize=12;startSize=8;endSize=8;curved=1;entryX=0;entryY=0.25;entryDx=0;entryDy=0;exitX=1.003;exitY=0.332;exitDx=0;exitDy=0;exitPerimeter=0;" edge="1" parent="1" source="28TmXDf5r4aAqDVnzsn--85">
          <mxGeometry width="50" height="50" relative="1" as="geometry">
            <mxPoint x="423" y="259.75" as="sourcePoint" />
            <mxPoint x="-340" y="259.75" as="targetPoint" />
          </mxGeometry>
        </mxCell>
        <mxCell id="28TmXDf5r4aAqDVnzsn--88" value="" style="endArrow=none;dashed=1;html=1;strokeWidth=1;rounded=0;fontSize=12;startSize=8;endSize=8;curved=1;entryX=0;entryY=0.25;entryDx=0;entryDy=0;exitX=0.999;exitY=0.71;exitDx=0;exitDy=0;exitPerimeter=0;" edge="1" parent="1" source="28TmXDf5r4aAqDVnzsn--85">
          <mxGeometry width="50" height="50" relative="1" as="geometry">
            <mxPoint x="423" y="361.75" as="sourcePoint" />
            <mxPoint x="-340" y="361.75" as="targetPoint" />
          </mxGeometry>
        </mxCell>
        <mxCell id="28TmXDf5r4aAqDVnzsn--89" value="[selecionar&lt;div&gt;critério de agrupamento]&lt;/div&gt;" style="text;html=1;align=center;verticalAlign=middle;whiteSpace=wrap;rounded=0;fontSize=11;" vertex="1" parent="1">
          <mxGeometry x="-328" y="209" width="60" height="30" as="geometry" />
        </mxCell>
        <mxCell id="28TmXDf5r4aAqDVnzsn--90" value="[criar novo&lt;div&gt;&lt;span style=&quot;background-color: initial;&quot;&gt;grupo]&lt;/span&gt;&lt;/div&gt;" style="text;html=1;align=center;verticalAlign=middle;whiteSpace=wrap;rounded=0;fontSize=11;" vertex="1" parent="1">
          <mxGeometry x="-334" y="268" width="60" height="30" as="geometry" />
        </mxCell>
        <mxCell id="28TmXDf5r4aAqDVnzsn--91" value="[apagar grupo&lt;span style=&quot;background-color: initial;&quot;&gt;]&lt;/span&gt;" style="text;html=1;align=center;verticalAlign=middle;whiteSpace=wrap;rounded=0;fontSize=11;" vertex="1" parent="1">
          <mxGeometry x="-334" y="368" width="60" height="30" as="geometry" />
        </mxCell>
      </root>
    </mxGraphModel>
  </diagram>
</mxfile>
